<?xml version="1.0" encoding="iso-8859-1"?>
<!-- Generator: Adobe Illustrator 19.0.0, SVG Export Plug-In . SVG Version: 6.00 Build 0)  -->
<svg version="1.1" id="Capa_1" xmlns="http://www.w3.org/2000/svg" xmlns:xlink="http://www.w3.org/1999/xlink" x="0px" y="0px"
	 viewBox="0 0 155.301 155.301" style="enable-background:new 0 0 155.301 155.301;" xml:space="preserve">
<g>
	<circle style="fill:#98E2ED;" cx="77.651" cy="77.65" r="77.65"/>
	<g>
		<g>
			<path style="fill:#583B2B;" d="M59.399,39.418c-1.464-2.684-3.768-6.758-4.675-7.515c-1.328-1.106-5.093,9.418-0.734,12.732
				C55.58,42.692,57.397,40.94,59.399,39.418z"/>
			<path style="opacity:0.6;fill:#AB6609;" d="M59.399,39.418c-1.464-2.684-3.768-6.758-4.675-7.515
				c-1.328-1.106-5.093,9.418-0.734,12.732C55.58,42.692,57.397,40.94,59.399,39.418z"/>
			<path style="fill:#583B2B;" d="M103.356,44.636c4.357-3.314,0.593-13.839-0.734-12.732c-0.908,0.756-3.212,4.83-4.675,7.515
				C99.948,40.94,101.764,42.692,103.356,44.636z"/>
			<path style="opacity:0.6;fill:#AB6609;" d="M103.356,44.636c4.357-3.314,0.593-13.839-0.734-12.732
				c-0.908,0.756-3.212,4.83-4.675,7.515C99.948,40.94,101.764,42.692,103.356,44.636z"/>
			<path style="fill:#583B2B;" d="M78.671,96.678c9.917,0,18.773-4.528,24.62-11.628c4.533-5.506,7.256-12.559,7.256-20.248
				c0-5.662-1.482-10.975-4.07-15.583c6.961-5.772,2.448-26.437-3.36-23.964c-4.926,2.096-8.973,8.824-10.197,11.033
				c-4.289-2.147-9.125-3.362-14.248-3.362c-5.121,0-9.957,1.215-14.246,3.362c-1.225-2.209-5.271-8.938-10.197-11.033
				c-5.809-2.473-10.321,18.191-3.359,23.964c-2.589,4.608-4.071,9.921-4.071,15.583c0,7.689,2.723,14.741,7.257,20.248
				C59.899,92.15,68.757,96.678,78.671,96.678z M88.922,91.593c-4.648,0-8.549-2.698-9.696-6.355
				c-1.146,3.657-5.048,6.355-9.697,6.355c-5.547,0-10.048-3.838-10.048-8.572c0-4.735,4.501-8.573,10.048-8.573
				c0.449,0,0.887,0.034,1.32,0.082c-0.009-0.082-0.027-0.17-0.027-0.247c0-2.768,2.32-5.369,8.406-5.369
				c6.083,0,8.402,2.602,8.402,5.369c0,0.077-0.018,0.165-0.026,0.247c0.433-0.048,0.87-0.082,1.318-0.082
				c5.55,0,10.049,3.838,10.049,8.573C98.971,87.755,94.472,91.593,88.922,91.593z M102.621,31.904
				c1.327-1.106,5.092,9.418,0.734,12.732c-1.592-1.944-3.407-3.696-5.409-5.217C99.409,36.734,101.713,32.66,102.621,31.904z
				 M89.752,51.215c3.695-0.133,6.796,2.755,6.93,6.45c0.132,3.694-2.756,6.797-6.451,6.929c-3.694,0.13-6.795-2.758-6.926-6.451
				C83.171,54.448,86.06,51.346,89.752,51.215z M54.724,31.904c0.907,0.756,3.211,4.83,4.675,7.515
				c-2.002,1.522-3.818,3.273-5.409,5.217C49.631,41.322,53.396,30.797,54.724,31.904z M56.225,53.517
				c3.905-9.022,10.798-8.886,15.48-7.522c5.679,1.654,7.558,8.981,6.14,15.362c-1.418,6.381-18.198,12.053-21.62,10.398
				C52.803,70.102,52.321,62.539,56.225,53.517z"/>
			<path style="fill:#AB6609;" d="M56.225,71.755c3.422,1.655,20.202-4.017,21.62-10.398c1.418-6.381-0.461-13.708-6.14-15.362
				c-4.683-1.364-11.575-1.5-15.48,7.522C52.321,62.539,52.803,70.102,56.225,71.755z M67.381,51.215
				c3.692,0.131,6.58,3.233,6.447,6.928c-0.132,3.693-3.232,6.582-6.926,6.451c-3.696-0.132-6.583-3.235-6.451-6.929
				C60.584,53.97,63.685,51.082,67.381,51.215z"/>
			<path style="fill:#FFFFFF;" d="M66.903,64.594c3.693,0.13,6.794-2.758,6.926-6.451c0.133-3.695-2.755-6.797-6.447-6.928
				c-3.696-0.133-6.797,2.755-6.93,6.45C60.32,61.359,63.206,64.461,66.903,64.594z M67.854,55.251
				c1.936,0.462,2.388,2.19,1.868,3.648c-0.3-0.414-0.771-0.74-1.448-0.901c-1.826-0.436-3.232,0.81-3.653,2.213
				C62.905,58.394,64.7,54.5,67.854,55.251z"/>
			<path style="fill:#353A42;" d="M68.274,57.998c0.678,0.162,1.148,0.488,1.448,0.901c0.52-1.458,0.067-3.187-1.868-3.648
				c-3.153-0.751-4.949,3.143-3.233,4.96C65.041,58.808,66.447,57.563,68.274,57.998z"/>
			<path style="fill:#FFFFFF;" d="M90.231,64.594c3.695-0.132,6.583-3.235,6.451-6.929c-0.134-3.694-3.234-6.583-6.93-6.45
				c-3.692,0.131-6.581,3.233-6.447,6.928C83.436,61.836,86.536,64.724,90.231,64.594z M89.28,55.251
				c3.152-0.751,4.948,3.143,3.233,4.96c-0.422-1.403-1.826-2.648-3.654-2.213c-0.678,0.162-1.149,0.488-1.448,0.901
				C86.892,57.441,87.343,55.713,89.28,55.251z"/>
			<path style="fill:#353A42;" d="M88.859,57.998c1.828-0.436,3.232,0.81,3.654,2.213c1.715-1.817-0.081-5.711-3.233-4.96
				c-1.937,0.462-2.388,2.19-1.869,3.648C87.709,58.486,88.181,58.16,88.859,57.998z"/>
			<path style="fill:#AB6609;" d="M88.922,74.449c-0.448,0-0.886,0.034-1.318,0.082c-0.285,2.845-5.413,8.233-8.376,8.233
				c-2.966,0-8.094-5.388-8.379-8.233c-0.434-0.048-0.871-0.082-1.32-0.082c-5.547,0-10.048,3.838-10.048,8.573
				c0,4.734,4.501,8.572,10.048,8.572c4.649,0,8.551-2.698,9.697-6.355c1.148,3.657,5.048,6.355,9.696,6.355
				c5.55,0,10.049-3.838,10.049-8.572C98.971,78.287,94.472,74.449,88.922,74.449z"/>
			<path style="fill:#160F0B;" d="M79.228,82.764c2.963,0,8.091-5.388,8.376-8.233c0.009-0.082,0.026-0.17,0.026-0.247
				c0-2.768-2.319-5.369-8.402-5.369c-6.086,0-8.406,2.602-8.406,5.369c0,0.077,0.019,0.165,0.027,0.247
				C71.134,77.376,76.262,82.764,79.228,82.764z"/>
			<path style="fill:#422C20;" d="M115.335,76.145c-1.097,8.413-8.464,12.268-11.399,13.483c-0.073-1.569-0.297-3.097-0.644-4.578
				c-5.847,7.1-14.703,11.628-24.62,11.628c-9.914,0-18.772-4.528-24.617-11.628c-0.438,1.863-0.477,3.803-0.477,5.799
				c0,5.789,1.421,11.121,5.421,15.384v19.89c0,2.279,1.448,3.07,3.727,3.07h4.126c2.277,0,3.147-0.792,3.147-3.07v-11.175
				c2,0.774,5.103,1.195,7.787,1.195c2.842,0,6.213-0.476,8.213-1.34v11.32c0,2.279,2.643,3.07,4.922,3.07h4.127
				c2.278,0,3.951-0.792,3.951-3.07v-20.464c2-3.353,4.137-7.323,4.675-11.632c3.98-1.436,9.103-4.181,11.161-7.796
				C118.112,80.478,115.335,76.145,115.335,76.145z"/>
		</g>
		<path style="opacity:0.3;fill:#FFFFFF;" d="M115.335,76.145c-1.097,8.413-8.464,12.268-11.399,13.483
			c-0.073-1.569-0.297-3.097-0.645-4.578c4.534-5.506,7.257-12.559,7.257-20.248c0-5.662-1.482-10.975-4.07-15.583
			c6.961-5.772,2.448-26.437-3.36-23.964c-4.926,2.096-8.973,8.824-10.197,11.033c-4.289-2.147-9.124-3.362-14.248-3.362
			c-0.042,0-0.086,0.003-0.129,0.003v83.211c0.043,0,0.087,0.002,0.129,0.002c2.843,0,5.572-0.476,8.123-1.34v11.32
			c0,2.279,1.847,4.127,4.126,4.127h4.127c2.278,0,4.126-1.848,4.126-4.127v-20.464c2.426-3.353,4.048-7.323,4.588-11.632
			c3.979-1.436,9.058-4.181,11.116-7.796C118.155,80.478,115.335,76.145,115.335,76.145z"/>
	</g>
</g>
<g>
</g>
<g>
</g>
<g>
</g>
<g>
</g>
<g>
</g>
<g>
</g>
<g>
</g>
<g>
</g>
<g>
</g>
<g>
</g>
<g>
</g>
<g>
</g>
<g>
</g>
<g>
</g>
<g>
</g>
</svg>
