<?xml version="1.0" encoding="iso-8859-1"?>
<!-- Generator: Adobe Illustrator 19.0.0, SVG Export Plug-In . SVG Version: 6.00 Build 0)  -->
<svg version="1.1" id="Layer_1" xmlns="http://www.w3.org/2000/svg" xmlns:xlink="http://www.w3.org/1999/xlink" x="0px" y="0px"
	 viewBox="0 0 496.158 496.158" style="enable-background:new 0 0 496.158 496.158;" xml:space="preserve">
<path style="fill:#4ABC96;" d="M248.075,0C111.07,0,0,111.062,0,248.083c0,137.005,111.07,248.075,248.075,248.075
	c137.013,0,248.083-111.07,248.083-248.075C496.158,111.062,385.088,0,248.075,0z"/>
<path style="fill:#D3D2D1;" d="M424.939,154.135l-20.561-0.899l-10.775,9.754c4.651-0.203,26.814-1.648,29.516-3.118
	C425.265,158.706,424.939,154.135,424.939,154.135z"/>
<path style="fill:#EFEFEF;" d="M80.889,248.84c-22.848,2.448-42.893-8.335-46.515-26.44c-1.469-7.345-11.751-7.345-9.303,9.303
	c0,0,12.895,26.766,48.473,26.44c40.556-0.375,52.949-29.171,56.121-42.04C130.422,213.028,94.155,247.417,80.889,248.84z"/>
<g>
	<path style="fill:#D3D2D1;" d="M200.489,271.126c0,0,5.699-2.314,14.096-5.042c-6.529-9.544-11.472-20.339-14.325-32.102
		c-0.712-2.93-1.259-5.86-1.69-8.798c-0.131-0.386-0.291-0.761-0.413-1.151c-2.563,0.853-5.157,1.633-7.819,2.28
		c-24.451,5.933-74.657,8.32-70.193,18.043c9.023,19.647,27.466,52.667,27.466,52.667c2.004,13.167-11.694,31.52-18.029,39.189
		c-1.866,2.261-2.069,2.276-2.245,3.952c-0.168,1.679,0.153,3.519,0.153,3.519l11.314,43.933c0,0,0.49,1.419,1.572,2.307
		c1.083,0.895,2.54,0.608,2.54,0.608l29.826-1.144c-1.148-17.397-15.86-11.521-15.86-11.521l-2.926-29.363
		C195.333,310.033,200.489,271.126,200.489,271.126z"/>
	<path style="fill:#D3D2D1;" d="M314.123,365.87l12.791-89.473c2.999-2.854,6.07-7.226,9.012-12.218
		c-2.731-0.589-5.408-1.308-8.048-2.115c-12.379,3.232-25.507,4.12-38.766,2.215c-5.47,5.164-11.537,9.655-18.001,13.507
		c-0.643,2.383-1.381,4.728-2.196,7.035c7.429,1.752,12.188,2.796,12.188,2.796c17.956,20.545,18.655,71.655,18.637,86.615
		c-0.008,1.286-0.13,4.625,0.635,5.784c0.734,1.117,4.556,1.614,4.556,1.614l20.45,2.792
		C333.631,371.424,314.123,365.87,314.123,365.87z"/>
</g>
<path style="fill:#EFEFEF;" d="M432.017,136.324c-2.426-6.25-36.776-11.663-36.776-11.663c-11.199-6.721-4.422-21.012-28.566-22.875
	c-8.485-0.654-22.749-2.337-30.032,3.263c-10.994,8.461-12.555,22.16-16.973,39.825c-7.834,31.336-14.888,37.889-27.618,43.275
	c-42.174,17.841-77.955,21.659-112.126,20.052c-34.175-1.614-77.652,6.526-75.694,45.046c1.098,21.59,11.613,47.888,11.613,47.888
	c-1.155,13.27-18.797,27.871-26.761,33.827c-2.35,1.76-2.548,1.729-3.114,3.313c-0.559,1.591-0.681,3.458-0.681,3.458l0.635,45.36
	c0,0,0.138,1.492,0.979,2.616c0.842,1.117,2.325,1.186,2.325,1.186l28.116,1.339c2.983-17.176-12.7-14.934-12.7-14.934l5.226-24.642
	c49.284-27.626,63.476-72.646,63.476-72.646s30.886,3.814,54.319,7.677c31.665,5.226,77.852,7.475,77.852,7.475
	c21.115,17.275,30.288,67.562,32.751,82.312c0.215,1.27,0.644,4.586,1.592,5.6c0.91,0.983,4.759,0.841,4.759,0.841l20.633-0.643
	c5.976-14.191-14.184-16.429-14.184-16.429l-2.241-90.353c8.958-11.946,13.571-45.827,14.222-54.889
	c0.65-9.139,0.058-16.854,8.197-38.864c6.201-16.77,18.174-19.325,22.727-19.708c1.87-0.161,11.973-2.18,18.403-3.305
	c10.484-1.836,14.769-3.305,16.237-6.732C431.518,146.209,433.55,140.287,432.017,136.324z"/>
<path style="fill:#493E30;" d="M432.017,136.324c-0.612-1.564-3.214-3.075-6.771-4.46l-4.063,8.006
	c3.175,3.171,10.733,4.303,10.733,4.303C432.697,140.999,432.72,138.149,432.017,136.324z"/>
<path style="fill:#D3D2D1;" d="M292.065,267.523c-1.683-6.067,2.059-20.81,2.242-22.122c0.184-1.308-0.559-1.679-0.559-1.679
	s-6.725,20.721-5.792,24.455c0.934,3.737,17.559,26.987,17.559,26.987l3.726,3.255C309.241,298.419,293.749,273.59,292.065,267.523z
	"/>
<path style="fill:#493E30;" d="M374.798,116.907c-0.749,0-2.035,2.372-2.708,4.575c-0.956,3.129-1.071,6.094-0.337,6.266
	c2.196,0.505,12.188-1.018,12.188-3.221C383.94,121.138,375.548,116.907,374.798,116.907z"/>
<path style="fill:#D3D2D1;" d="M363.689,146.4c0,0-0.566-0.559-1.683,3.083s2.104,19.884-2.8,21.421
	c-4.904,1.538-26.215-17.145-27.336-20.787c-1.117-3.642,13.197-23.036,19.355-33.257c1.622-2.693,6.557-4.074,6.718-4.762
	c0.244-1.048-7.279-0.015-7.421,0.142c-2.33,2.624-22.661,34.427-21.823,38.161c0.979,4.357,26.444,26.383,32.189,22.324
	C366.627,168.663,363.689,146.4,363.689,146.4z"/>
<g>
	<path style="fill:#6B6B6A;" d="M187.679,288.631l-2.571,0.39c-1.932-0.249-3.642,0.639-3.813,1.978c0,0-2.096,3.079-1.69,5.026
		c0.409,1.947,6.38,5.765,6.38,5.765c0.804,0.734,2.017,1.063,3.176,1.025c2.268-4.387,4.101-8.477,5.569-12.156
		C192.005,289.342,188.547,288.179,187.679,288.631z"/>
	<path style="fill:#6B6B6A;" d="M162.516,327.266l-3.488-1.071c-2.291-1.492-4.992-1.411-6.021,0.176c0,0-4.524,2.616-5.202,5.325
		c-0.669,2.712,4.553,11.177,4.553,11.177c0.639,1.568,2.188,2.865,3.875,3.458c4.751-4.571,9.004-9.135,12.807-13.625
		C166.574,329.859,163.69,327.227,162.516,327.266z"/>
	<path style="fill:#6B6B6A;" d="M132.036,361.341c-0.853,0.237-1.495,0.758-1.587,1.461l3.756,8.645
		c0.146,0.134,0.341,0.222,0.517,0.325L132.036,361.341z"/>
	<path style="fill:#6B6B6A;" d="M144.633,366.031l-0.643-1.484c0.138-1.079-7.233-4.265-8.423-3.646l-2.063,0.314
		c-0.531-0.069-1.021,0.004-1.469,0.126l2.686,10.432c1.021,0.593,2.429,0.711,3.442,0.188l2.059-0.317
		C141.771,371.845,145.627,366.933,144.633,366.031z"/>
	<path style="fill:#6B6B6A;" d="M183.972,248.347l-1.71-2.865c0-2.234-15.894-6.809-18.162-5.229l-4.128,1.19
		c-3.213,0-5.817,1.806-5.817,4.04c0,0-2.781,5.478-1.706,8.576c1.074,3.106,11.651,8.094,11.651,8.094
		c2.269,1.58,5.952,1.58,8.221,0l4.127-1.186C179.661,260.966,186.24,249.927,183.972,248.347z"/>
	<path style="fill:#6B6B6A;" d="M225.613,225.675c-0.792-2.066-8.584-5.397-8.584-5.397c-1.672-1.052-3.733,0.906-5.401,1.958
		l-3.695-1.167c-2.367,0-7.214,7.368-5.542,8.416l1.258,1.913c0,1.488,11.709,4.537,13.381,3.488l2.434-2.857
		c2.363,0,4.892,0.857,4.892-0.631C224.354,231.397,226.405,227.744,225.613,225.675z"/>
	<path style="fill:#6B6B6A;" d="M245.94,257.765c-1.128-1.484-8.201-2.349-8.201-2.349c-1.595-0.463-3.791,0.176-4.893,1.419
		l-2.269,1.354c-1.912,0.551-0.96,5.371,0.636,5.83l-1.305,4.567c0.352,1.201,10.152-0.13,11.258-1.374l2.269-1.35
		c1.908-0.555,3.179-1.981,2.83-3.183C246.266,262.68,247.061,259.249,245.94,257.765z"/>
	<path style="fill:#6B6B6A;" d="M283.873,225.965c-1.52-1.997-11.045-3.164-11.045-3.164c-2.146-0.62-5.103,0.237-6.587,1.909
		l-3.053,1.821c-2.574,0.75-5.52,10.29-3.373,10.902l1.974,1.687c3.37,1.396,6.959-3.829,10.225-4.479
		c3.267-0.654,5.543,1.515,8.484,2.226s4.28-2.666,3.81-4.284C284.308,232.583,285.379,227.962,283.873,225.965z"/>
	<path style="fill:#6B6B6A;" d="M349.556,305.882c-2.56-0.535-4.916-0.822-4.916-0.822c-2.146-0.62-5.103,0.237-6.587,1.909
		L335,308.79c-2.574,0.75-5.52,10.29-3.374,10.902l1.975,1.687c3.37,1.396,6.958-3.829,10.225-4.479
		c2.311-0.463,4.127,0.489,6.036,1.335L349.556,305.882z"/>
	<path style="fill:#6B6B6A;" d="M338.011,344.824c-0.501-1.813-2.425-3.562-4.284-3.887l-2.655-1.392
		c-0.323-0.291-0.937-0.421-1.641-0.467c2.043,6.671,3.711,13.201,5.05,19.107c0.653-0.138,1.243-0.432,1.575-0.799
		c0,0,3.791-1.27,4.561-3.236C341.381,352.176,338.011,344.824,338.011,344.824z"/>
	<path style="fill:#6B6B6A;" d="M351.066,366.846l-0.142-5.757c-0.765-0.061-1.4-0.05-1.668,0.138l-2.456,0.704
		c-1.912,0-3.462,1.079-3.462,2.402c0,0-1.652,3.263-1.014,5.11c0.64,1.844,6.932,4.812,6.932,4.812
		c1.351,0.941,3.542,0.941,4.893,0l2.456-0.704c1.04,0,2.646-1.936,3.703-3.856C356.031,367.4,351.066,366.846,351.066,366.846z"/>
	<path style="fill:#6B6B6A;" d="M327.388,292.777l-1.293-2.173c0-1.691-12.034-5.149-13.751-3.956l-3.126,0.899
		c-2.433,0-4.402,1.366-4.402,3.057c0,0-0.073,0.153-0.153,0.321c2.605,4.322,4.579,7.494,4.579,7.494s1.664,1.951,4.063,5.252
		c1.679,0.673,3.829,0.559,5.268-0.44l3.125-0.899C324.129,302.332,329.105,293.971,327.388,292.777z"/>
</g>
<g>
	<path style="fill:#7A7A7A;" d="M307.635,356.67c-1.129-1.484-8.201-2.349-8.201-2.349c-0.077-0.019-0.165-0.012-0.241-0.027
		c0.275,4.847,0.425,9.28,0.489,12.952c1.542-0.329,2.823-0.73,3.179-1.128l2.269-1.35c1.909-0.555,3.179-1.981,2.831-3.183
		C307.96,361.586,308.755,358.154,307.635,356.67z"/>
	<path style="fill:#7A7A7A;" d="M315.285,328.658l-2.223-0.031c-1.61-0.448-3.148,0.015-3.428,1.029c0,0-2.085,2.108-1.939,3.661
		c0.157,1.561,4.843,5.302,4.843,5.302c0.938,1.033,2.794,1.545,4.128,1.14l1.186,0.019l1.439-10.053
		C317.55,329.006,315.854,328.49,315.285,328.658z"/>
	<path style="fill:#7A7A7A;" d="M308.277,375.356c-0.964-2.012-3.573-3.649-5.807-3.642l-2.743-0.864
		c0.012,1.262,0.012,2.406,0.012,3.381c-0.008,1.286-0.13,4.625,0.635,5.784c0.734,1.117,4.556,1.614,4.556,1.614l7.586,1.037
		C311.107,379.457,308.277,375.356,308.277,375.356z"/>
</g>
<g>
	<path style="fill:#6B6B6A;" d="M321.509,205.263l-2.437-0.069c-1.568-0.742-3.485,0-4.273,1.66c0,0-3.297,3.443-3.875,6.005
		c-0.569,2.563,2.827,8.737,2.827,8.737c0.547,1.706,2.349,2.56,4.013,1.905l2.437,0.077c1.572,0.742,8.699-5.964,8.148-7.666
		l0.18-2.536C329.316,211.712,323.173,204.617,321.509,205.263z"/>
	<path style="fill:#6B6B6A;" d="M350.649,237.315l-4.128,1.189c-3.213,0-5.817,1.806-5.817,4.04c0,0-2.781,5.478-1.706,8.576
		c1.074,3.106,11.651,8.094,11.651,8.094c1.45,1.01,3.462,1.301,5.328,1.018c2.081-6.993,3.685-14.766,4.851-21.659
		C356.498,237.307,351.805,236.508,350.649,237.315z"/>
	<path style="fill:#6B6B6A;" d="M312.936,190.658l-0.88-2.8c0.413-0.865-4.461-4.881-9.227-8.156
		c-2.686,3.956-5.994,6.419-10.779,8.446c-1.562,0.658-3.091,1.193-4.637,1.775c0.084,0.077,0.138,0.123,0.138,0.123
		c1.882,2.203,5.765,4.047,8.664,4.116l4.732,1.263C304.333,197.035,314.822,192.862,312.936,190.658z"/>
	<path style="fill:#6B6B6A;" d="M167.661,306.131l-0.804-1.855c0.076-0.604-1.782-1.744-3.955-2.747
		c-2.207,3.626-4.816,7.536-7.868,11.606c1.273,0.887,3.201,1.094,4.552,0.394l2.57-0.394
		C164.088,313.384,168.904,307.256,167.661,306.131z"/>
	<path style="fill:#6B6B6A;" d="M368.199,189.526c-1.568-0.742-3.484,0-4.272,1.66c0,0-3.297,3.443-3.875,6.006
		c-0.57,2.563,2.827,8.737,2.827,8.737c0.241,0.75,0.75,1.301,1.361,1.668c0.717-4.644,2.031-10.321,4.609-18.052L368.199,189.526z"
		/>
	<path style="fill:#6B6B6A;" d="M362.649,160.018l-0.643-0.019l-1.179-0.035c-1.178-0.559-2.612,0-3.205,1.247
		c0,0-2.472,2.578-2.899,4.499c-0.241,1.094,0.481,3.053,1.147,4.552c0.502,1.125,0.972,1.997,0.972,1.997
		c0.08,0.252,0.222,0.459,0.371,0.658c1.541,0.386,2.834,0.397,3.676-0.191c2.429-1.722,3.297-6.706,3.496-11.881
		C363.667,160.251,363.013,159.876,362.649,160.018z"/>
	<path style="fill:#6B6B6A;" d="M350.725,117.672c-1.036-0.964-2.027-1.614-2.536-1.419l-0.497-0.012
		c-1.981,2.965-4.701,7.199-7.475,11.713c0.616,1.408,1.221,2.517,1.221,2.517c0.096,0.302,0.264,0.551,0.439,0.788
		c0.692,0.922,1.897,1.327,3.053,0.872l2.123,0.065c1.369,0.65,7.574-5.19,7.092-6.675l0.157-2.204
		C354.75,122.377,352.65,119.459,350.725,117.672z"/>
	<path style="fill:#6B6B6A;" d="M342.999,139.316l-1.366-0.039c-0.879-0.42-1.954,0-2.398,0.934c0,0-1.851,1.928-2.172,3.366
		c-0.318,1.438,1.587,4.904,1.587,4.904c0.303,0.957,1.316,1.438,2.249,1.071l1.37,0.038c0.884,0.421,4.881-3.343,4.571-4.299
		l0.099-1.423C347.387,142.934,343.936,138.952,342.999,139.316z"/>
	<path style="fill:#6B6B6A;" d="M335.593,174.561l-1.759-0.05c-1.133-0.539-2.518-0.003-3.086,1.201c0,0-2.381,2.483-2.802,4.334
		c-0.409,1.852,2.043,6.312,2.043,6.312c0.397,1.231,1.698,1.851,2.899,1.377l1.76,0.054c1.136,0.539,6.285-4.308,5.887-5.539
		l0.13-1.829C341.235,179.221,336.798,174.095,335.593,174.561z"/>
	<path style="fill:#6B6B6A;" d="M339.392,126.363c-1.568-0.742-3.484,0-4.272,1.66c0,0-3.298,3.443-3.875,6.006
		c-0.345,1.542,0.749,4.376,1.675,6.403c2.349-4.307,5.367-9.364,8.255-14.016L339.392,126.363z"/>
	<path style="fill:#6B6B6A;" d="M126.792,281.6c-1.603-2.176-5.076-3.534-7.73-3.022l-4.27-0.505
		c-1.04-0.409-2.888,0.161-4.797,1.151c1.197,4.625,2.318,8.878,3.259,12.382c1.512,0.065,2.938,0.214,4.024,0.75
		c3.615,1.783,4.196,5.546,6.495,8.4c2.299,2.85,6.075,0.597,6.82-1.301c0,0,4.434-3.646,4.461-6.675
		C135.069,289.747,126.792,281.6,126.792,281.6z"/>
	<path style="fill:#6B6B6A;" d="M140.957,313.215c0,0-5.451-1.786-8.025-0.187c-2.567,1.618-5,12.975-5,12.975
		c-0.979,2.517-0.264,6.182,1.592,8.144l1.866,3.875c0.023,0.111,0.084,0.229,0.13,0.344c3.944-3.03,7.563-6.06,10.856-9.074
		c-0.107-0.344-0.229-0.696-0.264-1.033c-0.437-4.009,2.429-6.518,3.6-9.988C146.886,314.803,142.961,312.825,140.957,313.215z"/>
	<path style="fill:#6B6B6A;" d="M101.01,328.926c-0.405-0.532-1.58-0.979-2.915-1.343c-3.4,3.049-6.637,5.604-9.012,7.379
		c-2.35,1.76-2.548,1.729-3.114,3.313c-0.214,0.612-0.352,1.239-0.451,1.805c2.119,0.536,9.75-0.62,10.718-1.706l2.269-1.35
		c1.909-0.555,3.179-1.978,2.831-3.183C101.335,333.841,102.131,330.41,101.01,328.926z"/>
	<path style="fill:#6B6B6A;" d="M101.947,363.789c-1.596-0.459-3.791,0.176-4.893,1.419l-2.269,1.35
		c-1.913,0.559-0.96,5.378,0.635,5.83l-1.305,4.571c0.329,1.121,8.799,0.035,10.837-1.125l2.338-11.021
		C104.896,364.156,101.947,363.789,101.947,363.789z"/>
	<path style="fill:#6B6B6A;" d="M129.117,247.869l-0.095-1.928c0.669-1.018-6.778-8.844-8.508-8.94l-2.64-0.945
		c-1.778-1.163-3.76-1.277-4.426-0.252c0,0-3.171,1.496-3.496,3.301c-0.329,1.802,4.047,7.899,4.047,7.899
		c0.788,1.538,2.832,2.869,4.556,2.968l2.64,0.945C122.975,252.077,129.909,249.406,129.117,247.869z"/>
	<path style="fill:#6B6B6A;" d="M267.484,284.048l-3.229-0.987c-2.119-1.381-4.617-1.308-5.573,0.165c0,0-4.185,2.417-4.809,4.923
		c-0.172,0.696,0.092,1.813,0.536,3.045c7.673,0.811,15.274,1.492,22.183,2.043C274.657,289.897,269.172,283.998,267.484,284.048z"
		/>
	<path style="fill:#6B6B6A;" d="M209.233,267.075l-2.486-0.761c-1.633-1.063-3.558-1.006-4.292,0.126c0,0-3.225,1.863-3.706,3.794
		c-0.479,1.932,3.243,7.964,3.243,7.964c0.632,1.549,2.502,2.77,4.174,2.72l2.486,0.757c1.633,1.063,8.63-2.364,7.998-3.917
		l0.081-2.02C217.47,274.603,210.909,267.025,209.233,267.075z"/>
	<path style="fill:#6B6B6A;" d="M139.568,211.827c0.1,3.642,1.105,7.65,2.578,7.604l2.766,1.155
		c1.197,1.607,15.113-3.623,15.905-5.975l2.337-3.075c1.278-0.949,2.073-2.192,2.38-3.389
		C156.709,208.499,147.785,209.628,139.568,211.827z"/>
	<path style="fill:#6B6B6A;" d="M261.261,199.112c-9.735,2.804-19.16,4.885-28.333,6.365c0.092,0.298,0.229,0.535,0.455,0.654
		l1.832,2.368c0.245,1.993,14.926,4.331,16.777,2.678l3.554-1.515c2.865-0.352,4.992-2.249,4.751-4.238
		C260.297,205.424,261.57,201.843,261.261,199.112z"/>
</g>
<g>
</g>
<g>
</g>
<g>
</g>
<g>
</g>
<g>
</g>
<g>
</g>
<g>
</g>
<g>
</g>
<g>
</g>
<g>
</g>
<g>
</g>
<g>
</g>
<g>
</g>
<g>
</g>
<g>
</g>
</svg>
