<?xml version="1.0" encoding="iso-8859-1"?>
<!-- Generator: Adobe Illustrator 19.0.0, SVG Export Plug-In . SVG Version: 6.00 Build 0)  -->
<svg version="1.1" id="Layer_1" xmlns="http://www.w3.org/2000/svg" xmlns:xlink="http://www.w3.org/1999/xlink" x="0px" y="0px"
	 viewBox="0 0 512 512" style="enable-background:new 0 0 512 512;" xml:space="preserve">
<circle style="fill:#366695;" cx="256" cy="256" r="256"/>
<path style="fill:#263A7A;" d="M510.809,231.29l-92.408-92.432L142.831,330.35l174.306,174.283C428.997,477.222,512,376.313,512,256
	C512,247.663,511.588,239.423,510.809,231.29z"/>
<path style="fill:#995C33;" d="M182.732,204.007c15.107-16.443,11.707-41.115-7.594-55.106
	c-13.345-9.675-50.233-12.703-71.73-13.652c-8.34-0.367-14.489,6.327-12.412,13.51c5.356,18.516,16.093,50.012,29.437,59.687
	C139.735,222.437,167.626,220.45,182.732,204.007z"/>
<path style="fill:#87502A;" d="M329.268,204.007c-15.107-16.443-11.707-41.115,7.594-55.106
	c13.345-9.675,50.233-12.703,71.73-13.652c8.34-0.367,14.489,6.327,12.412,13.51c-5.356,18.516-16.093,50.012-29.437,59.687
	C372.265,222.437,344.374,220.45,329.268,204.007z"/>
<path style="fill:#D48B07;" d="M404.692,248.177c0,69.965-66.572,126.683-148.692,126.683s-148.692-56.718-148.692-126.683
	S173.88,147.003,256,147.003S404.692,178.212,404.692,248.177z"/>
<path style="fill:#B7750B;" d="M256,147.001c-0.193,0-0.381,0.007-0.574,0.007v227.838c0.193,0,0.381,0.012,0.574,0.012
	c82.12,0,148.692-56.718,148.692-126.683C404.692,178.21,338.12,147.001,256,147.001z"/>
<g>
	<circle style="fill:#121149;" cx="197.749" cy="277.256" r="10.378"/>
	<circle style="fill:#121149;" cx="314.251" cy="277.256" r="10.378"/>
</g>
<path style="fill:#FEE187;" d="M256,301.971c-36.2,0-65.548,9.604-65.548,41.091c0,7.265,1.579,14.203,4.427,20.594
	c18.649,7.177,39.327,11.205,61.121,11.205s42.472-4.029,61.121-11.205c2.848-6.389,4.427-13.329,4.427-20.592
	C321.548,311.575,292.202,301.971,256,301.971z"/>
<path style="fill:#FFC61B;" d="M256,301.971c-0.193,0-0.383,0.005-0.574,0.005v72.869c0.193,0,0.381,0.014,0.574,0.014
	c21.794,0,42.472-4.027,61.121-11.205c2.848-6.389,4.427-13.329,4.427-20.592C321.548,311.575,292.202,301.971,256,301.971z"/>
<path style="fill:#773426;" d="M267.242,294.121h-22.485c-10.3,0-16.529,9.392-10.969,16.543l11.242,14.462
	c1.352,1.738,3.163,3.005,5.186,3.827v37.838c0,3.194,2.591,5.784,5.784,5.784s5.784-2.591,5.784-5.784v-37.838
	c2.022-0.822,3.834-2.089,5.186-3.827l11.242-14.462C283.77,303.513,277.544,294.121,267.242,294.121z"/>
<path style="fill:#662C22;" d="M267.242,294.121h-11.816v78.396c0.191,0.019,0.378,0.059,0.574,0.059
	c3.194,0,5.784-2.591,5.784-5.784v-37.838c2.022-0.822,3.834-2.089,5.186-3.827l11.242-14.462
	C283.77,303.513,277.544,294.121,267.242,294.121z"/>
<g>
</g>
<g>
</g>
<g>
</g>
<g>
</g>
<g>
</g>
<g>
</g>
<g>
</g>
<g>
</g>
<g>
</g>
<g>
</g>
<g>
</g>
<g>
</g>
<g>
</g>
<g>
</g>
<g>
</g>
</svg>
