<?xml version="1.0" encoding="iso-8859-1"?>
<!-- Generator: Adobe Illustrator 19.0.0, SVG Export Plug-In . SVG Version: 6.00 Build 0)  -->
<svg version="1.1" id="Layer_1" xmlns="http://www.w3.org/2000/svg" xmlns:xlink="http://www.w3.org/1999/xlink" x="0px" y="0px"
	 viewBox="0 0 512 512" style="enable-background:new 0 0 512 512;" xml:space="preserve">
<circle style="fill:#FFEDB5;" cx="256" cy="256" r="256"/>
<path style="fill:#FDE085;" d="M370.721,119.455L180.589,357.007l145.325,145.327c105.948-30.011,183.936-126.533,186.027-241.593
	L370.721,119.455z"/>
<path style="fill:#995C33;" d="M336.849,214.307c-13.983-2.446-20.704-20.485-15.012-40.293
	c3.936-13.695,23.064-36.016,34.494-48.488c4.436-4.839,10.128-3.843,11.49,2.01c3.51,15.086,8.59,41.641,4.655,55.336
	C366.783,202.68,350.834,216.754,336.849,214.307z"/>
<path style="fill:#663C0E;" d="M340.078,221.143c-1.458,0-2.91-0.122-4.356-0.376l0,0c-6.939-1.214-12.964-5.406-16.963-11.802
	c-5.916-9.457-7.12-23.202-3.222-36.762c4.108-14.289,21.823-35.68,35.961-51.107c3.908-4.267,9.073-6.073,13.812-4.827
	c4.418,1.158,7.744,4.815,8.901,9.78c4.372,18.791,8.714,44.216,4.57,58.635C372.639,206.041,356.219,221.143,340.078,221.143z
	 M337.98,207.848c10.566,1.853,23.49-10.419,28.193-26.788c2.569-8.937,0.888-27.686-4.613-51.497
	c-0.122,0.11-0.253,0.241-0.395,0.393c-18.372,20.047-30.41,36.766-33.025,45.87c-2.888,10.042-2.239,19.832,1.736,26.186
	C331.936,205.305,334.662,207.267,337.98,207.848L337.98,207.848z"/>
<path style="fill:#995C33;" d="M175.151,214.307c13.983-2.446,20.704-20.485,15.012-40.293
	c-3.936-13.695-23.064-36.016-34.494-48.488c-4.436-4.839-10.128-3.843-11.49,2.01c-3.51,15.086-8.59,41.641-4.655,55.336
	C145.217,202.68,161.168,216.754,175.151,214.307z"/>
<path style="fill:#663C0E;" d="M171.923,221.143c-16.143,0-32.563-15.101-38.702-36.459c-4.143-14.417,0.198-39.843,4.57-58.635
	c1.157-4.965,4.484-8.621,8.901-9.78c4.748-1.246,9.904,0.562,13.812,4.829c14.138,15.425,31.854,36.816,35.961,51.107
	c3.898,13.56,2.694,27.305-3.222,36.762c-3.999,6.396-10.023,10.588-16.963,11.802l0,0
	C174.835,221.02,173.378,221.143,171.923,221.143z M150.44,129.564c-5.499,23.811-7.182,42.56-4.613,51.497
	c4.705,16.368,17.601,28.639,28.193,26.788c3.319-0.581,6.044-2.544,8.102-5.835c3.975-6.356,4.624-16.144,1.736-26.186
	c-2.617-9.104-14.653-25.822-33.025-45.868C150.695,129.805,150.562,129.676,150.44,129.564z"/>
<path style="fill:#D48B07;" d="M380.409,242.21c0,67.836-55.699,149.978-124.409,149.978S131.591,310.046,131.591,242.21
	S187.29,151.704,256,151.704S380.409,174.373,380.409,242.21z"/>
<path style="fill:#AF6E05;" d="M256,151.704c-0.193,0-0.381,0.005-0.574,0.005v240.468c0.191,0.002,0.383,0.01,0.574,0.01
	c68.71,0,124.409-82.142,124.409-149.978S324.71,151.704,256,151.704z"/>
<path style="fill:#7C4D03;" d="M245.101,349.351l-11.169-14.367c-5.523-7.104,0.664-16.436,10.899-16.436h22.338
	c10.233,0,16.42,9.33,10.899,16.436l-11.169,14.367C261.804,355.904,250.196,355.904,245.101,349.351z"/>
<path style="fill:#663C0E;" d="M267.169,318.55h-11.743v35.688c4.363,0.157,8.807-1.458,11.471-4.886l11.169-14.367
	C283.589,327.88,277.402,318.55,267.169,318.55z"/>
<circle style="fill:#995C33;" cx="197.37" cy="249.656" r="41.108"/>
<path style="fill:#663C0E;" d="M197.367,298.577c-26.974,0-48.921-21.944-48.921-48.919s21.945-48.921,48.921-48.921
	s48.919,21.945,48.919,48.921S224.342,298.577,197.367,298.577z M197.367,216.364c-18.358,0-33.294,14.936-33.294,33.294
	c0,18.356,14.936,33.294,33.294,33.294c18.356,0,33.294-14.936,33.294-33.294C230.66,231.3,215.724,216.364,197.367,216.364z"/>
<g>
	<circle style="fill:#1E262B;" cx="198.973" cy="247.811" r="8.189"/>
	<circle style="fill:#1E262B;" cx="313.027" cy="247.811" r="8.189"/>
</g>
<g>
</g>
<g>
</g>
<g>
</g>
<g>
</g>
<g>
</g>
<g>
</g>
<g>
</g>
<g>
</g>
<g>
</g>
<g>
</g>
<g>
</g>
<g>
</g>
<g>
</g>
<g>
</g>
<g>
</g>
</svg>
